<svg width="16" height="20" viewBox="0 0 16 20" fill="none" xmlns="http://www.w3.org/2000/svg">
<path d="M5.08692 3H3.16663C2.65734 3 2.1689 3.21071 1.80878 3.58579C1.44865 3.96086 1.24634 4.46957 1.24634 5V17C1.24634 17.5304 1.44865 18.0391 1.80878 18.4142C2.1689 18.7893 2.65734 19 3.16663 19H12.7681C13.2774 19 13.7658 18.7893 14.1259 18.4142C14.4861 18.0391 14.6884 17.5304 14.6884 17V5C14.6884 4.46957 14.4861 3.96086 14.1259 3.58579C13.7658 3.21071 13.2774 3 12.7681 3H10.8478M5.08692 3C5.08692 2.46957 5.28923 1.96086 5.64936 1.58579C6.00948 1.21071 6.49791 1 7.00721 1H8.9275C9.43679 1 9.92522 1.21071 10.2853 1.58579C10.6455 1.96086 10.8478 2.46957 10.8478 3M5.08692 3C5.08692 3.53043 5.28923 4.03914 5.64936 4.41421C6.00948 4.78929 6.49791 5 7.00721 5H8.9275C9.43679 5 9.92522 4.78929 10.2853 4.41421C10.6455 4.03914 10.8478 3.53043 10.8478 3" stroke="currentColor" stroke-width="2" stroke-linecap="round" stroke-linejoin="round"/>
</svg>
